<svg width="178" height="53" viewBox="0 0 178 53" fill="none" xmlns="http://www.w3.org/2000/svg">
<path d="M55.508 39.568C55.244 39.856 54.908 40 54.5 40C54.092 40 53.744 39.856 53.456 39.568C53.192 39.28 53.06 38.944 53.06 38.56V15.16C53.06 14.776 53.192 14.44 53.456 14.152C53.744 13.864 54.092 13.72 54.5 13.72C54.908 13.72 55.244 13.864 55.508 14.152C55.796 14.44 55.94 14.776 55.94 15.16V25.384C55.94 25.408 55.952 25.42 55.976 25.42H56.048L65.804 14.98C66.596 14.14 67.568 13.72 68.72 13.72C69.056 13.72 69.284 13.876 69.404 14.188C69.548 14.476 69.5 14.74 69.26 14.98L58.748 26.104C58.604 26.248 58.592 26.392 58.712 26.536L69.656 38.704C69.872 38.944 69.908 39.22 69.764 39.532C69.62 39.844 69.392 40 69.08 40C67.904 40 66.944 39.568 66.2 38.704L56.048 27.22C56.024 27.196 56 27.184 55.976 27.184C55.952 27.184 55.94 27.208 55.94 27.256V38.56C55.94 38.944 55.796 39.28 55.508 39.568ZM82.1626 30.1C79.7866 30.1 77.9866 30.484 76.7626 31.252C75.5626 32.02 74.9626 33.1 74.9626 34.492C74.9626 35.572 75.2626 36.448 75.8626 37.12C76.4866 37.768 77.3026 38.092 78.3106 38.092C80.0386 38.092 81.4666 37.516 82.5946 36.364C83.7466 35.212 84.3226 33.688 84.3226 31.792V30.424C84.3226 30.208 84.2146 30.1 83.9986 30.1H82.1626ZM77.7346 40.36C76.1026 40.36 74.7706 39.844 73.7386 38.812C72.7066 37.78 72.1906 36.412 72.1906 34.708C72.1906 32.716 72.9826 31.12 74.5666 29.92C76.1506 28.72 78.6826 28.12 82.1626 28.12H83.9986C84.2146 28.12 84.3226 28.024 84.3226 27.832V27.148C84.3226 25.684 83.9866 24.664 83.3146 24.088C82.6426 23.488 81.4546 23.188 79.7506 23.188C78.0946 23.188 76.3066 23.5 74.3866 24.124C74.0986 24.22 73.8346 24.184 73.5946 24.016C73.3546 23.848 73.2346 23.608 73.2346 23.296C73.2346 22.456 73.6306 21.916 74.4226 21.676C76.1986 21.172 77.9746 20.92 79.7506 20.92C82.5106 20.92 84.4186 21.424 85.4746 22.432C86.5546 23.44 87.0946 25.252 87.0946 27.868V38.704C87.0946 39.064 86.9626 39.376 86.6986 39.64C86.4586 39.88 86.1586 40 85.7986 40C85.4386 40 85.1266 39.88 84.8626 39.64C84.5986 39.376 84.4666 39.064 84.4666 38.704L84.4306 36.832C84.4306 36.808 84.4186 36.796 84.3946 36.796C84.3466 36.796 84.3226 36.82 84.3226 36.868C82.9066 39.196 80.7106 40.36 77.7346 40.36ZM91.4113 24.16C91.0993 24.16 90.8353 24.064 90.6193 23.872C90.4273 23.656 90.3313 23.392 90.3313 23.08C90.3313 22.768 90.4273 22.516 90.6193 22.324C90.8353 22.108 91.0993 22 91.4113 22H94.0393C94.2553 22 94.3633 21.892 94.3633 21.676V16.528C94.3633 16.144 94.4953 15.82 94.7593 15.556C95.0233 15.292 95.3473 15.16 95.7313 15.16C96.1153 15.16 96.4393 15.292 96.7033 15.556C96.9673 15.82 97.0993 16.144 97.0993 16.528V21.676C97.0993 21.892 97.2073 22 97.4233 22H102.823C103.135 22 103.387 22.108 103.579 22.324C103.795 22.516 103.903 22.768 103.903 23.08C103.903 23.392 103.795 23.656 103.579 23.872C103.387 24.064 103.135 24.16 102.823 24.16H97.4233C97.2073 24.16 97.0993 24.268 97.0993 24.484V33.988C97.0993 35.716 97.3273 36.856 97.7832 37.408C98.2393 37.936 99.1153 38.2 100.411 38.2C101.179 38.2 101.815 38.14 102.319 38.02C102.583 37.972 102.823 38.032 103.039 38.2C103.279 38.344 103.399 38.548 103.399 38.812C103.399 39.148 103.291 39.448 103.075 39.712C102.883 39.976 102.631 40.132 102.319 40.18C101.695 40.3 100.903 40.36 99.9433 40.36C97.8313 40.36 96.3673 39.928 95.5513 39.064C94.7593 38.176 94.3633 36.568 94.3633 34.24V24.484C94.3633 24.268 94.2553 24.16 94.0393 24.16H91.4113ZM118.022 30.1C115.646 30.1 113.846 30.484 112.622 31.252C111.422 32.02 110.822 33.1 110.822 34.492C110.822 35.572 111.122 36.448 111.722 37.12C112.346 37.768 113.162 38.092 114.17 38.092C115.898 38.092 117.326 37.516 118.454 36.364C119.606 35.212 120.182 33.688 120.182 31.792V30.424C120.182 30.208 120.074 30.1 119.858 30.1H118.022ZM113.594 40.36C111.962 40.36 110.63 39.844 109.598 38.812C108.566 37.78 108.05 36.412 108.05 34.708C108.05 32.716 108.842 31.12 110.426 29.92C112.01 28.72 114.542 28.12 118.022 28.12H119.858C120.074 28.12 120.182 28.024 120.182 27.832V27.148C120.182 25.684 119.846 24.664 119.174 24.088C118.502 23.488 117.314 23.188 115.61 23.188C113.954 23.188 112.166 23.5 110.246 24.124C109.958 24.22 109.694 24.184 109.454 24.016C109.214 23.848 109.094 23.608 109.094 23.296C109.094 22.456 109.49 21.916 110.282 21.676C112.058 21.172 113.834 20.92 115.61 20.92C118.37 20.92 120.278 21.424 121.334 22.432C122.414 23.44 122.954 25.252 122.954 27.868V38.704C122.954 39.064 122.822 39.376 122.558 39.64C122.318 39.88 122.018 40 121.658 40C121.298 40 120.986 39.88 120.722 39.64C120.458 39.376 120.326 39.064 120.326 38.704L120.29 36.832C120.29 36.808 120.278 36.796 120.254 36.796C120.206 36.796 120.182 36.82 120.182 36.868C118.766 39.196 116.57 40.36 113.594 40.36ZM132.068 39.568C131.804 39.856 131.468 40 131.06 40C130.652 40 130.304 39.856 130.016 39.568C129.752 39.28 129.62 38.944 129.62 38.56V14.44C129.62 14.056 129.752 13.72 130.016 13.432C130.304 13.144 130.652 13 131.06 13C131.468 13 131.804 13.144 132.068 13.432C132.356 13.72 132.5 14.056 132.5 14.44V38.56C132.5 38.944 132.356 39.28 132.068 39.568ZM152.393 30.64C152.393 25.6 150.473 23.08 146.633 23.08C142.793 23.08 140.873 25.6 140.873 30.64C140.873 35.68 142.793 38.2 146.633 38.2C150.473 38.2 152.393 35.68 152.393 30.64ZM152.933 37.804C151.421 39.508 149.321 40.36 146.633 40.36C143.945 40.36 141.845 39.508 140.333 37.804C138.821 36.1 138.065 33.712 138.065 30.64C138.065 27.568 138.821 25.18 140.333 23.476C141.845 21.772 143.945 20.92 146.633 20.92C149.321 20.92 151.421 21.772 152.933 23.476C154.445 25.18 155.201 27.568 155.201 30.64C155.201 33.712 154.445 36.1 152.933 37.804ZM166.592 23.08C163.112 23.08 161.372 25.516 161.372 30.388C161.372 32.812 161.828 34.66 162.74 35.932C163.676 37.204 164.96 37.84 166.592 37.84C167.984 37.84 169.196 37.324 170.228 36.292C171.284 35.26 171.812 34.024 171.812 32.584V28.408C171.812 26.968 171.284 25.72 170.228 24.664C169.196 23.608 167.984 23.08 166.592 23.08ZM165.872 40C163.688 40 161.924 39.16 160.58 37.48C159.26 35.776 158.6 33.412 158.6 30.388C158.6 27.196 159.26 24.82 160.58 23.26C161.924 21.7 163.688 20.92 165.872 20.92C168.296 20.92 170.276 21.916 171.812 23.908C171.836 23.932 171.86 23.944 171.884 23.944C171.908 23.944 171.92 23.932 171.92 23.908L171.956 22.576C171.956 22.216 172.076 21.916 172.316 21.676C172.58 21.412 172.892 21.28 173.252 21.28C173.612 21.28 173.912 21.412 174.152 21.676C174.416 21.916 174.548 22.216 174.548 22.576V38.92C174.548 42.16 173.852 44.524 172.46 46.012C171.068 47.524 168.884 48.28 165.908 48.28C164.42 48.28 163.052 48.124 161.804 47.812C161.036 47.62 160.652 47.116 160.652 46.3C160.652 46.012 160.76 45.772 160.976 45.58C161.216 45.412 161.468 45.376 161.732 45.472C163.076 45.904 164.468 46.12 165.908 46.12C167.996 46.12 169.496 45.568 170.408 44.464C171.344 43.36 171.812 41.548 171.812 39.028V37.264C171.812 37.24 171.8 37.228 171.776 37.228C171.752 37.228 171.728 37.24 171.704 37.264C170.24 39.088 168.296 40 165.872 40Z" fill="#fff"/>
<path fill-rule="evenodd" clip-rule="evenodd" d="M33.7199 13H9.31084C6.38191 13 3.81989 14.7682 3.81989 17.6984V35.0774L11.7191 23.9091H16.2401L2 45.1212H7.90508L24.5993 20.8788H29.1197L7.01109 53H13.2135L27.4657 31.7879H31.9861L21.2971 47.5454H33.7199C36.6501 47.5454 38.9715 45.0364 38.9715 42.1074V17.6984C38.9715 14.7682 36.6501 13 33.7199 13Z" fill="#fff"/>
</svg>
