<svg xmlns="http://www.w3.org/2000/svg" viewBox="0 0 4898.94 5054.29"><defs><style>.cls-1{fill:#f3f6ff;}.cls-1,.cls-2,.cls-3,.cls-5,.cls-7,.cls-8{fill-rule:evenodd;}.cls-2{fill:#eaf0ff;}.cls-3{fill:#fff;}.cls-4,.cls-6{fill:none;stroke-linecap:round;stroke-linejoin:round;stroke-width:17.9px;}.cls-4{stroke:#1b3c87;}.cls-5{fill:#6b6b6b;}.cls-6{stroke:#b6c6fc;}.cls-7{fill:#1b3c87;}.cls-8{fill:#a9e4ff;}</style></defs><title>drawkit-grape-pack-illustration-7</title><g id="Layer_2" data-name="Layer 2"><g id="Layer_1-2" data-name="Layer 1"><g id="Vector"><path class="cls-1" d="M3779.77,3579.37c0-309,250.53-559.59,559.58-559.59s559.59,250.54,559.59,559.59S4648.4,4139,4339.35,4139,3779.77,3888.41,3779.77,3579.37Z"/><path class="cls-2" d="M699,2384.79c0-774.85,628.14-1403,1403-1403s1403,628.13,1403,1403-628.14,1403-1403,1403S699,3159.64,699,2384.79Z"/><path class="cls-3" d="M792.09,2876.26c39.48-36.45,178-163.59,206.67-176.55s361.16,357.95,328.32,384.49-206.64,186.6-272,227.3C924.52,3169.4,833.74,3006.21,792.09,2876.26Z"/><path class="cls-4" d="M778.8,2844c39.48-36.45,173.1-159.7,201.81-172.66s363.59,385.4,330.75,411.93-207.14,196.66-258.65,229.28"/><path class="cls-5" d="M1653.4,2457.3c190.52,289.76-277.38,653.4-349,674.29S924.4,2730,946.73,2674.36,1423.33,2107.39,1653.4,2457.3Z"/><path class="cls-4" d="M1165.1,2402.47c151.27-104.94,339.54-165.49,463.12,22.46,190.52,289.76-277.38,653.4-349,674.29s-380-401.64-357.66-457.23c4.33-10.76,24.85-38.63,56.81-74"/><path class="cls-5" d="M2036.2,2211.54c-214.59-1.29-425.74,40-529.81,120.85-169,131.32-281.4,943.08-232.93,1184.65,232.16,170.17,518.55,270.72,828.46,270.72,244.65,0,474.63-62.7,674.88-172.78,35.45-301.63-51.93-1163.91-190.13-1268.81C2468.84,2256.72,2250.8,2212.83,2036.2,2211.54Z"/><path class="cls-4" d="M1315.32,2678.38c40.66-178.5,95.1-327.36,159.6-377.46,208.14-161.7,844.6-165.14,1080.27,13.76C2701.8,2426,2797.73,3391.51,2737.53,3632.33"/><path class="cls-4" d="M1242.7,3489.56c-9.73-61.46-10.34-161.13-3-277.54"/><path class="cls-6" d="M284,9l641,242L649.91,979.48,9,737.49Z"/><path class="cls-6" d="M3158.49,3807l136.17,1238.31,876.61-1493.63Z"/><path class="cls-6" d="M264.83,1038.9c0-208,168.61-376.6,376.6-376.6S1018,830.91,1018,1038.9s-168.61,376.6-376.6,376.6S264.83,1246.89,264.83,1038.9Z"/><path class="cls-3" d="M2938,3524c-29.9-29.9-236-311-259.22-337.46s417.42-391.85,444.52-359.9,135.75,184,186.41,267.6C3269,3167.61,3043.89,3451.73,2938,3524Z"/><path class="cls-4" d="M2948,3501.73c-25-34.09-248.37-341.81-271.6-368.28s417.43-391.85,444.53-359.9,156.89,209.58,201.59,296.5"/><path class="cls-5" d="M2464.49,2303C2687,2150.32,3224.05,2674.69,3222.71,2831s-478.84,440.34-558.38,399.32C2576.66,3185.15,2123.06,2537.14,2464.49,2303Z"/><path class="cls-4" d="M2330.41,2644.24c-30-145.34-10.74-284.76,113.13-369.71,222.55-152.64,759.56,371.72,758.21,528.07s-478.83,440.33-558.38,399.32c-25.45-13.13-81.75-77.06-140.48-166.93"/><path class="cls-4" d="M699,2384.79c0-774.85,628.14-1403,1403-1403s1403,628.13,1403,1403-628.14,1403-1403,1403S699,3159.64,699,2384.79Z"/><path class="cls-3" d="M3308,2618.3c1.38-40.31,79.93-56.66,175.45-36.53s171.84,69.12,170.47,109.42-79.94,56.65-175.46,36.52S3306.59,2658.6,3308,2618.3Z"/><path class="cls-3" d="M3336.33,2464.11c1.38-40.3,79.93-56.66,175.45-36.53s171.85,69.12,170.47,109.42-79.94,56.66-175.46,36.53S3335,2504.41,3336.33,2464.11Z"/><path class="cls-3" d="M3332.67,2304.76c1.38-40.3,79.93-56.65,175.46-36.53s171.84,69.12,170.46,109.42-79.94,56.66-175.46,36.53S3331.29,2345.06,3332.67,2304.76Z"/><path class="cls-4" d="M3371.93,2246.28c31.39-5.8,73.41-4.56,119.36,5.12,95.52,20.13,171.84,69.12,170.46,109.42-.93,27.21-37.05,43.51-89.83,45"/><path class="cls-4" d="M3348.39,2413.55c31.48-13.63,85.56-15.66,146.56-2.8,95.52,20.13,171.84,69.12,170.46,109.42-1,29.38-43,46-102.77,45.1"/><path class="cls-4" d="M3368,2557.13c28.16-2.24,62.13.13,98.58,7.81,95.52,20.13,171.84,69.11,170.46,109.42-.86,25.18-31.87,41-78.33,44.44"/><path class="cls-3" d="M516.9,2363.26c1.38-40.3,79.94-56.65,175.46-36.52s171.84,69.11,170.46,109.42-79.93,56.65-175.46,36.52S515.52,2403.56,516.9,2363.26Z"/><path class="cls-3" d="M545.26,2209.07c1.38-40.3,79.94-56.65,175.46-36.52S892.56,2241.67,891.18,2282s-79.93,56.65-175.45,36.52S543.88,2249.38,545.26,2209.07Z"/><path class="cls-3" d="M541.6,2049.72c1.38-40.3,79.94-56.65,175.46-36.52s171.84,69.12,170.46,109.42-79.93,56.65-175.45,36.52S540.23,2090,541.6,2049.72Z"/><path class="cls-4" d="M561.37,2087.83c-29.4-19.4-47.13-41.08-46.46-60.69,1.38-40.3,79.94-56.65,175.46-36.52,42.79,9,81.72,23.82,111.55,41"/><path class="cls-4" d="M601.81,2267.43c-50.66-23.45-84.16-54.12-83.24-80.94,1.38-40.3,79.94-56.65,175.46-36.53,39.8,8.39,76.27,21.79,105.17,37.48"/><path class="cls-4" d="M628.39,2442c-79.85-23.26-139.4-65.69-138.18-101.33,1.38-40.3,79.94-56.66,175.46-36.53,55.87,11.78,105.18,33.42,136.2,57.43"/><path class="cls-3" d="M2250.88,1903.25c-9.09,51.74-51,260.07-18.88,485.89-37.05,28-253.08,48.23-312.5,0,2.1-91.59,4.19-274.76-4.19-321.6S2260,1851.52,2250.88,1903.25Z"/><path class="cls-4" d="M1895.24,2359.1c2.09-91.59,4.19-274.76-4.2-321.6s344.66-216,335.58-164.29-51,260.07-18.88,485.89c-16.77,12.65-70.2,23.73-129.19,27.6"/><path class="cls-3" d="M1545.41,1603.47c20.56-252.22,209.85-442.89,422.78-425.88s368.89,235.26,348.32,487.48S2106.66,2108,1893.73,2091,1524.84,1855.69,1545.41,1603.47Z"/><path class="cls-4" d="M2097.32,2004.47c-65.84,44.91-142.86,68.08-223.24,61.66-99.16-7.92-186-59.49-248.34-137.8"/><path class="cls-4" d="M1543,1764.05c-16.1-57.63-22.53-120.39-17.23-185.4,20.56-252.22,209.85-442.89,422.79-425.88s368.88,235.26,348.32,487.48c-6.2,76-27.71,146.4-60.58,207.22"/><path class="cls-7" d="M1919.75,1511.35c2.94-27.26,15.33-48.28,27.67-46.95s19.95,24.52,17,51.77-15.34,48.28-27.67,46.94S1916.8,1538.6,1919.75,1511.35Z"/><path class="cls-4" d="M1750.08,1534.19c-9.79,42.2-36.92,90.42-69.32,116"/><path class="cls-4" d="M1829.2,1796.78a44.83,44.83,0,1,1,44.83,44.83A44.84,44.84,0,0,1,1829.2,1796.78Z"/><path class="cls-8" d="M2204.1,1672.26c-27.07-1.93-104.77-112.79-25.06-189-39.11-38.1-269.18-210.31-545.59-103.51-35.91-36.52-133.93-183.36-49.32-246.67s119.95,13.25,130.91,43.68c-25.56-80.34-11.17-296.44,204-298.83s446.51,626.29,437.16,739.11S2346.38,1745.1,2204.1,1672.26Z"/><path class="cls-4" d="M2194.76,1170.29c81.4,168.73,135.11,349.25,130.51,404.78-9.36,112.82-9.82,128.06-152.1,55.22-27.06-1.93-104.77-112.79-25.06-189-30.94-30.15-181.48-144.29-379.92-137.68"/><path class="cls-4" d="M1602.52,1337.79c-35.91-36.52-133.93-183.36-49.32-246.67s120,13.24,130.91,43.68c-25.56-80.35-11.16-296.44,204-298.84,54-.6,109.07,38.59,161.07,99.4"/><path class="cls-3" d="M2142.63,1725.82a98.57,98.57,0,1,1,98.57,98.57A98.57,98.57,0,0,1,2142.63,1725.82Z"/><path class="cls-4" d="M2191.07,1622.92a98.57,98.57,0,1,1-5.4,176.41"/></g></g></g></svg>
